<svg xmlns="http://www.w3.org/2000/svg" width="24" height="24" fill="none"><path fill="#333" d="M21.742 9.067l-1.758 2.637L19.843 24H2.258l.14-24h19.344v9.067z"/><path fill="#DBB57A" stroke="#DBB57A" stroke-miterlimit="10" d="M18.085 22.225l.14-10.52-1.758-2.638v-7.31h-5.276v7.035H5.915V1.758H4.157l-.14 20.467h14.068z"/><path fill="#CCC" d="M9.432 1.758H7.673v5.276h1.759V1.758z"/><path fill="#333" d="M9.432 11.837H7.673v1.758h1.759v-1.758zm0 3.517H7.673v1.758h1.759v-1.758zm0 3.516H7.673v1.759h1.759V18.87zm1.758-8.792H9.433v1.759h1.759v-1.76zM9.416 8.421H7.657v1.759h1.76V8.42zm1.774 5.174H9.433v1.759h1.759v-1.76zm0 3.517H9.433v1.759h1.759v-1.759zm0 3.55H9.433v1.758h1.759v-1.758z"/><path fill="#DBB57A" stroke="#DBB57A" stroke-miterlimit="10" d="M19.984 1.758h-1.287v6.76l.591 1.008.696-1.008v-6.76z"/></svg>